<svg width="24" height="24" viewBox="0 0 24 24" fill="none" xmlns="http://www.w3.org/2000/svg">
<path d="M22.162 5.65593C21.3986 5.99362 20.589 6.2154 19.76 6.31393C20.6338 5.79136 21.2877 4.96894 21.6 3.99993C20.78 4.48793 19.881 4.82993 18.944 5.01493C18.3146 4.34151 17.4804 3.89489 16.571 3.74451C15.6616 3.59413 14.7279 3.74842 13.9153 4.18338C13.1026 4.61834 12.4564 5.30961 12.0771 6.14972C11.6978 6.98983 11.6068 7.93171 11.818 8.82893C10.1551 8.74558 8.52834 8.31345 7.04329 7.56059C5.55825 6.80773 4.24813 5.75097 3.19801 4.45893C2.8263 5.09738 2.63096 5.82315 2.63201 6.56193C2.63201 8.01193 3.37001 9.29293 4.49201 10.0429C3.82802 10.022 3.17864 9.84271 2.59801 9.51993V9.57193C2.59821 10.5376 2.93238 11.4735 3.54385 12.221C4.15533 12.9684 5.00649 13.4814 5.95301 13.6729C5.33662 13.84 4.69031 13.8646 4.06301 13.7449C4.32987 14.5762 4.85001 15.3031 5.5506 15.824C6.25118 16.3449 7.09714 16.6337 7.97001 16.6499C7.10249 17.3313 6.10918 17.8349 5.04689 18.1321C3.98459 18.4293 2.87413 18.5142 1.77901 18.3819C3.6907 19.6114 5.9161 20.264 8.18901 20.2619C15.882 20.2619 20.089 13.8889 20.089 8.36193C20.089 8.18193 20.084 7.99993 20.076 7.82193C20.8949 7.23009 21.6016 6.49695 22.163 5.65693L22.162 5.65593Z" fill="white"/>
</svg>
